#!OML:ASF F:\VICON\USERDATA\INSTALL\rory3\rory3.ASF
:FULLY-SPECIFIED
:DEGREES
37
root 2.17039 18.4094 45.5206 -5.34571 10.7085 -2.64555
lowerback 16.1403 -2.9666 -5.89175
upperback -4.11207 -4.88878 2.90111
thorax -12.9468 -1.66096 7.90503
lowerneck 4.30047 -12.3781 -9.88468
upperneck 15.4846 -17.9998 7.97351
head 5.61805 -9.04683 3.18041
rclavicle 2.90723e-015 -1.98785e-015
rhumerus -50.0528 -81.021 11.5138
rradius 36.012
rwrist -60.6287
rhand -13.0001 -4.82038
rfingers 7.12502
rthumb 13.0931 -34.3894
lclavicle 2.90723e-015 -1.98785e-015
lhumerus -53.434 9.69893 67.7028
lradius 47.2388
lwrist 9.71621
lhand -6.95012 53.8056
lfingers 7.12502
lthumb 18.9188 82.9055
rfemur -1.22681 2.43351 22.3469
rtibia 26.2912
rfoot -19.1858 -23.2966
rtoes 14.9375
lfemur -3.31453 -9.60286 -17.4607
ltibia 26.1563
lfoot -13.7892 3.7007
ltoes -15.1886
38
root 2.17007 18.4078 45.5164 -5.34579 10.6042 -2.76315
lowerback 16.1128 -2.92973 -5.7778
upperback -4.04459 -4.80585 2.94473
thorax -12.8705 -1.63588 7.86148
lowerneck 6.35283 -11.7356 -10.3725
upperneck 13.0958 -17.3434 9.92516
head 4.68391 -8.76207 4.09234
rclavicle 2.22142e-014 -3.18055e-014
rhumerus -54.6827 -82.0216 16.162
rradius 36.1445
rwrist -59.6503
rhand -15.0338 1.60209
rfingers 7.12502
rthumb 11.1322 -28.0826
lclavicle 2.22142e-014 -3.18055e-014
lhumerus -53.2738 9.6009 67.7789
lradius 47.2895
lwrist 9.96252
lhand -7.42919 53.8751
lfingers 7.12502
lthumb 18.458 83.0194
rfemur -1.14244 2.46665 22.4734
rtibia 26.0186
rfoot -18.7716 -23.4066
rtoes 14.6227
lfemur -3.42373 -9.62042 -17.334
ltibia 26.3476
lfoot -13.9677 3.42571
ltoes -15.0444
39
root 2.16752 18.4086 45.512 -5.35288 10.4791 -2.76864
lowerback 16.1196 -2.87568 -5.81525
upperback -3.9978 -4.73806 2.96276
thorax -12.8276 -1.60413 7.88411
lowerneck 7.75208 -10.5639 -10.7817
upperneck 11.8654 -15.8997 11.1803
head 4.04961 -8.09432 4.75499
rclavicle 3.74709e-014 1.70955e-014
rhumerus -52.827 -81.6724 14.3756
rradius 35.776
rwrist -60.2407
rhand -15.7109 3.45814
rfingers 7.12502
rthumb 10.479 -26.2607
lclavicle 3.74709e-014 1.70955e-014
lhumerus -53.1619 9.64946 67.7777
lradius 47.2482
lwrist 10.0175
lhand -7.76109 53.3862
lfingers 7.12502
lthumb 18.1387 82.5604
rfemur -1.12849 2.49152 22.4797
rtibia 25.934
rfoot -18.6841 -23.3245
rtoes 14.7047
lfemur -3.48427 -9.55728 -17.318
ltibia 26.4332
lfoot -14.162 2.78023
ltoes -14.2869
40
root 2.16248 18.4095 45.5066 -5.43758 10.2643 -2.96181
lowerback 16.2157 -2.78647 -5.68292
upperback -3.97144 -4.58521 3.0322
thorax -12.8845 -1.53599 7.85784
lowerneck 7.15974 -10.0919 -10.3118
upperneck 12.1248 -15.2006 11.1228
head 4.09957 -7.70806 4.67215
rclavicle 5.48397e-014 -1.90833e-014
rhumerus -60.5714 -82.7595 22.1851
rradius 35.9202
rwrist -58.7801
rhand -14.8459 0.953363
rfingers 7.12502
rthumb 11.3134 -28.7215
lclavicle 5.48397e-014 -1.90833e-014
lhumerus -53.1418 9.67592 67.7457
lradius 47.2586
lwrist 9.99667
lhand -7.74397 53.1589
lfingers 7.12502
lthumb 18.1552 82.3316
rfemur -1.10605 2.74391 22.7485
rtibia 25.8681
rfoot -18.7312 -23.3938
rtoes 14.7686
lfemur -3.48382 -9.49715 -17.078
ltibia 26.5439
lfoot -14.119 2.8371
ltoes -13.566
41
root 2.155 18.4115 45.503 -5.51358 10.0965 -3.12621
lowerback 16.3122 -2.67987 -5.59027
upperback -3.9911 -4.41827 3.102
thorax -12.995 -1.45352 7.85434
lowerneck 7.01894 -9.34656 -9.84684
upperneck 12.3419 -14.1576 11.0492
head 4.02837 -7.16857 4.63305
rclavicle 3.46134e-014 -1.8487e-014
rhumerus -73.4747 -83.8082 35.1994
rradius 36.1564
rwrist -56.857
rhand -11.2244 -6.68051
rfingers 7.12502
rthumb 14.8044 -36.1317
lclavicle 3.46134e-014 -1.8487e-014
lhumerus -53.1724 9.51418 67.7943
lradius 47.2794
lwrist 10.0506
lhand -7.56299 53.3338
lfingers 7.12502
lthumb 18.3293 82.4902
rfemur -1.11492 3.00699 23.0024
rtibia 25.8563
rfoot -18.6669 -23.4823
rtoes 14.7528
lfemur -3.47387 -9.33286 -16.863
ltibia 26.6191
lfoot -13.8821 3.66128
ltoes -15.5686
42
root 2.15183 18.412 45.497 -5.64298 9.98162 -3.39635
lowerback 16.4772 -2.62021 -5.31529
upperback -3.99535 -4.2765 3.17551
thorax -13.1356 -1.39588 7.76128
lowerneck -3.01191 -10.2555 -7.03286
upperneck 22.6554 -14.631 4.57701
head 8.39438 -7.17432 1.39814
rclavicle -6.83571e-014 1.66979e-014
rhumerus -61.4904 -82.472 23.1958
rradius 35.7978
rwrist -58.4863
rhand -12.2136 -5.24197
rfingers 7.12502
rthumb 13.8511 -34.7608
lclavicle -6.83571e-014 1.66979e-014
lhumerus -53.1992 9.46396 67.7809
lradius 47.3098
lwrist 10.0349
lhand -7.68597 53.0269
lfingers 7.12502
lthumb 18.211 82.1944
rfemur -1.07603 3.11297 23.3288
rtibia 25.8637
rfoot -18.5976 -23.5621
rtoes 14.7605
lfemur -3.42627 -9.31055 -16.5681
ltibia 26.6877
lfoot -13.9036 4.04502
ltoes -15.3524
43
root 2.15144 18.4126 45.4878 -5.54498 10.0105 -3.27157
lowerback 16.4374 -2.59932 -5.3954
upperback -4.02169 -4.26944 3.13736
thorax -13.1414 -1.38718 7.7602
lowerneck -3.41252 -9.83478 -6.72824
upperneck 23.037 -14.0708 4.55741
head 8.5329 -6.87117 1.37572
rclavicle -4.18442e-014 1.47101e-014
rhumerus -68.2966 -83.0711 30.0294
rradius 35.9628
rwrist -57.4491
rhand -11.6509 -5.54796
rfingers 7.12502
rthumb 14.3934 -35.0289
lclavicle -4.18442e-014 1.47101e-014
lhumerus -52.9043 9.48598 67.7521
lradius 46.9932
lwrist 9.88932
lhand -7.57015 53.028
lfingers 7.12502
lthumb 18.3224 82.1851
rfemur -1.20841 2.96511 23.1534
rtibia 25.9495
rfoot -18.4818 -23.4829
rtoes 14.192
lfemur -3.56471 -9.30145 -16.6875
ltibia 26.7028
lfoot -13.8848 3.97658
ltoes -14.4473
44
root 2.15489 18.4133 45.4773 -5.46513 10.1106 -3.07348
lowerback 16.5222 -2.5884 -5.50169
upperback -4.14873 -4.29157 3.08495
thorax -13.3348 -1.37577 7.78451
lowerneck -3.72568 -9.36133 -5.25382
upperneck 23.2711 -13.2673 3.25238
head 8.41383 -6.47901 0.794046
rclavicle -3.73715e-014 1.05356e-014
rhumerus -61.4771 -82.1126 23.0939
rradius 36.2007
rwrist -58.6849
rhand -15.0559 1.50084
rfingers 7.12502
rthumb 11.1109 -28.185
lclavicle -3.73715e-014 1.05356e-014
lhumerus -52.9186 9.45813 67.7905
lradius 46.8515
lwrist 9.80548
lhand -7.5496 53.3223
lfingers 7.12502
lthumb 18.3422 82.4776
rfemur -1.35853 2.7368 22.8644
rtibia 26.1195
rfoot -18.4934 -23.3278
rtoes 13.8525
lfemur -3.62578 -9.33174 -16.9218
ltibia 26.6373
lfoot -13.8362 3.96474
ltoes -15.2154
45
root 2.16106 18.4102 45.4584 -5.40457 10.1568 -2.904
lowerback 16.6935 -2.5494 -5.51829
upperback -4.24755 -4.26116 3.02351
thorax -13.5633 -1.34578 7.73957
lowerneck -3.6084 -8.99014 -4.93421
upperneck 23.2854 -12.7528 3.11487
head 8.3392 -6.22377 0.758897
rclavicle -7.11649e-014 -7.55382e-015
rhumerus -59.0776 -81.5375 20.56
rradius 36.559
rwrist -59.3642
rhand -12.3298 -5.58774
rfingers 7.12502
rthumb 13.7392 -35.1141
lclavicle -7.11649e-014 -7.55382e-015
lhumerus -52.976 9.31905 67.8593
lradius 46.9217
lwrist 9.78133
lhand -7.33064 53.4202
lfingers 7.12502
lthumb 18.5528 82.5555
rfemur -1.64089 2.36223 22.5493
rtibia 26.4932
rfoot -18.5909 -22.8934
rtoes 13.9526
lfemur -3.60045 -9.41551 -17.1509
ltibia 26.4549
lfoot -13.719 4.0413
ltoes -15.5051
46
root 2.18805 18.4075 45.4306 -5.22809 10.4526 -2.42243
lowerback 16.9381 -2.66167 -5.49839
upperback -4.36157 -4.45462 2.78001
thorax -13.8335 -1.4301 7.53065
lowerneck -3.32065 -8.59925 -5.13515
upperneck 23.2459 -12.3105 3.65286
head 8.30159 -5.98866 1.02332
rclavicle 1.88348e-014 9.14409e-015
rhumerus -53.4604 -80.4346 14.6612
rradius 36.736
rwrist -60.6708
rhand -15.4885 1.99357
rfingers 7.12502
rthumb 10.6936 -27.7143
lclavicle 1.88348e-014 9.14409e-015
lhumerus -53.1255 9.31983 67.7425
lradius 47.0865
lwrist 9.71418
lhand -7.14699 53.2785
lfingers 7.12502
lthumb 18.7294 82.3968
rfemur -1.95057 1.31723 21.6792
rtibia 26.8332
rfoot -18.3956 -22.2345
rtoes 13.0791
lfemur -3.66075 -9.54289 -17.8082
ltibia 26.2812
lfoot -13.4534 3.98773
ltoes -15.4926
47
root 2.22582 18.3969 45.3979 -4.8159 11.1259 -1.58845
lowerback 17.1274 -2.87716 -5.5979
upperback -4.60059 -4.8338 2.41186
thorax -14.194 -1.58868 7.30132
lowerneck -3.19155 -8.32079 -5.84268
upperneck 23.5208 -12.0916 4.63928
head 8.47119 -5.85416 1.47863
rclavicle 5.83681e-014 -1.43125e-014
rhumerus -55.9402 -80.8358 17.1269
rradius 36.8307
rwrist -59.9206
rhand -14.7062 0.334263
rfingers 7.12502
rthumb 11.4481 -29.3332
lclavicle 5.83681e-014 -1.43125e-014
lhumerus -53.3352 9.35088 67.6594
lradius 47.183
lwrist 9.66196
lhand -7.20355 53.1313
lfingers 7.12502
lthumb 18.675 82.2548
rfemur -2.33657 -0.565867 20.1715
rtibia 27.1265
rfoot -18.1853 -21.0322
rtoes 11.8157
lfemur -3.93716 -9.82099 -18.9328
ltibia 26.1709
lfoot -13.2391 3.80106
ltoes -15.6374
48
root 2.21848 18.4014 45.3935 -4.86226 10.9034 -1.81082
lowerback 17.0474 -2.80113 -5.44398
upperback -4.73136 -4.68184 2.51344
thorax -14.3281 -1.51479 7.29215
lowerneck -2.46874 -7.99531 -6.1714
upperneck 23.6044 -11.7236 5.01856
head 8.39078 -5.69009 1.72543
rclavicle 1.1455e-014 -8.34896e-015
rhumerus -52.796 -79.9029 14.103
rradius 36.4825
rwrist -60.5554
rhand -15.1108 2.81492
rfingers 7.12502
rthumb 11.0579 -26.8738
lclavicle 1.1455e-014 -8.34896e-015
lhumerus -53.6847 9.15276 67.7439
lradius 47.1897
lwrist 9.70977
lhand -7.36647 52.9853
lfingers 7.12502
lthumb 18.5183 82.1239
rfemur -2.52782 -0.207505 20.5095
rtibia 27.3886
rfoot -18.3233 -21.1406
rtoes 11.863
lfemur -3.8985 -9.6922 -18.6314
ltibia 26.074
lfoot -13.3249 3.51703
ltoes -15.348
49
root 2.21369 18.4073 45.3837 -4.82807 10.7281 -2.06926
lowerback 16.9806 -2.76029 -5.25363
upperback -4.28111 -4.54764 2.658
thorax -13.7753 -1.50668 7.27332
lowerneck -4.62327 -7.76717 -5.77976
upperneck 24.3758 -11.3483 4.81265
head 8.98801 -5.43394 1.52596
rclavicle -2.15184e-014 7.55382e-015
rhumerus -58.9678 -81.9234 20.263
rradius 36.5882
rwrist -59.2291
rhand -13.7441 -1.93789
rfingers 7.12502
rthumb 12.3758 -31.5516
lclavicle -2.15184e-014 7.55382e-015
lhumerus -52.6237 9.61072 67.9143
lradius 46.9682
lwrist 9.63573
lhand -7.44096 52.7985
lfingers 7.12502
lthumb 18.4467 81.9438
rfemur -2.82969 0.0592046 20.8423
rtibia 27.6416
rfoot -18.465 -21.1623
rtoes 12.1357
lfemur -4.03833 -9.57528 -18.2737
ltibia 26.0154
lfoot -13.4584 2.68575
ltoes -13.6502
50
root 2.21323 18.4062 45.3637 -4.7452 10.7731 -1.67127
lowerback 17.3763 -2.72525 -5.48001
upperback -4.52485 -4.6019 2.48982
thorax -14.2945 -1.48153 7.28008
lowerneck -4.62327 -7.44996 -5.42343
upperneck 24.7988 -10.9265 4.61072
head 9.07512 -5.21837 1.44249
rclavicle 6.98231e-015 2.38542e-015
rhumerus -61.5587 -81.9524 22.7363
rradius 36.853
rwrist -58.5759
rhand -14.98 2.19035
rfingers 7.12502
rthumb 11.1841 -27.4916
lclavicle 6.98231e-015 2.38542e-015
lhumerus -53.0419 9.33272 67.8583
lradius 47.0479
lwrist 9.72351
lhand -7.63497 52.4831
lfingers 7.12502
lthumb 18.26 81.646
rfemur -2.99676 -0.216202 20.3406
rtibia 27.801
rfoot -18.3247 -21.0005
rtoes 11.5242
lfemur -4.13875 -9.54016 -18.714
ltibia 26.007
lfoot -13.3449 2.63327
ltoes -13.6008
